<?xml version="1.0" encoding="UTF-8"?>
<svg version="1.1" xmlns="http://www.w3.org/2000/svg" width="1080" height="1080">
<path d="M0 0 C10.46502911 1.25604904 20.88499499 2.6915333 31.29785156 4.33154297 C32.75320245 4.55887767 34.20858686 4.78599779 35.66400146 5.01292419 C39.58573458 5.62502371 43.50699048 6.24013028 47.42815876 6.85583639 C51.63101454 7.51524766 55.83430355 8.17188675 60.03753662 8.82888794 C67.15581246 9.94192347 74.27380562 11.0567514 81.39160156 12.17285156 C88.52290075 13.29106629 95.65438862 14.40806434 102.78613281 15.5234375 C103.64874773 15.65835153 104.51136264 15.79326557 105.4001174 15.9322679 C108.88051648 16.47658847 112.36091963 17.02088304 115.84132862 17.56514025 C125.41610096 19.06254716 134.99048223 20.56237782 144.56384277 22.06878662 C148.0418985 22.615923 151.51996901 23.16296531 154.99804688 23.70996094 C155.85651309 23.84500644 156.71497931 23.98005195 157.59945965 24.11918974 C169.25741964 25.95229247 180.91898257 27.76043345 192.58397293 29.54823875 C198.845354 30.50813287 205.10546226 31.47620455 211.36523509 32.44652617 C216.42713673 33.23049182 221.4905002 34.0039214 226.55520916 34.76952839 C229.65564256 35.24084356 232.75442551 35.72235977 235.85282421 36.20685339 C237.28662859 36.42889813 238.72110487 36.64665238 240.15625477 36.85982752 C242.10986142 37.15057398 244.06097756 37.45791197 246.01190186 37.7661438 C247.1027647 37.93307299 248.19362755 38.10000217 249.31754684 38.27198982 C252.18188535 39.04936317 253.23696571 39.65991865 255 42 C256.01689105 44.19464533 256.94055645 46.43301196 257.81176758 48.68945312 C258.08087889 49.37894043 258.3499902 50.06842773 258.62725639 50.77880859 C259.21970056 52.2991686 259.80854172 53.82093616 260.39429283 55.34388733 C261.69787324 58.73214376 263.01945895 62.11329648 264.33964634 65.49510956 C265.06395173 67.35103198 265.78734508 69.20731056 266.50990963 71.06391144 C270.64431766 81.6806894 274.86169461 92.26422043 279.08056259 102.84765625 C280.45972897 106.30761734 281.83782691 109.76800217 283.21560669 113.22851562 C285.09134834 117.93960757 286.96746987 122.65054786 288.84399414 127.36132812 C291.22106824 133.32874475 293.59743148 139.29644415 295.97356224 145.26423645 C307.46177529 174.12413463 307.46177529 174.12413463 318.98828125 202.96875 C324.3958378 216.47190724 329.77651864 229.98573674 335.15625 243.5 C335.61335169 244.64826767 336.07045338 245.79653534 336.54140663 246.979599 C340.342132 256.52757319 344.14223163 266.07579641 347.94232178 275.62402344 C359.92399062 305.72928047 371.91371463 335.83101258 383.97109985 365.90603447 C386.10530449 371.22948055 388.23877027 376.55322237 390.37161255 381.87721443 C391.71528394 385.23107892 393.05965354 388.5846609 394.40527344 391.93774414 C395.74330475 395.27201932 397.07968632 398.6069512 398.4148941 401.94235802 C399.15829392 403.79812841 399.90344112 405.65319852 400.64862061 407.508255 C401.09038635 408.61259384 401.5321521 409.71693268 401.98730469 410.85473633 C402.57254913 412.31451653 402.57254913 412.31451653 403.1696167 413.80378723 C404 416 404 416 404 417 C320.51 417 237.02 417 151 417 C144.07 397.86 137.14 378.72 130 359 C119.17251263 329.03970337 119.17251263 329.03970337 107.8125 299.27661133 C107 297 107 297 107 295 C18.23 295 -70.54 295 -162 295 C-162.33 296.98 -162.66 298.96 -163 301 C-163.44372502 302.46551697 -163.93098381 303.91868284 -164.46435547 305.35400391 C-164.76403229 306.16865112 -165.06370911 306.98329834 -165.37246704 307.82263184 C-165.86485367 309.13632751 -165.86485367 309.13632751 -166.3671875 310.4765625 C-166.71389496 311.41504028 -167.06060242 312.35351807 -167.41781616 313.32043457 C-168.56537916 316.4237695 -169.72021924 319.52434445 -170.875 322.625 C-172.0938196 325.91489323 -173.3108 329.20546322 -174.52770996 332.49606323 C-175.37613119 334.78985085 -176.22518183 337.08340575 -177.0748291 339.3767395 C-180.14539899 347.66913628 -183.18643475 355.97194834 -186.2109375 364.28125 C-186.63482758 365.44522308 -187.05871765 366.60919617 -187.49545288 367.80844116 C-189.14945409 372.3511944 -190.80305356 376.89408895 -192.45306396 381.43829346 C-193.59679257 384.58724432 -194.74346933 387.73510879 -195.890625 390.8828125 C-196.21815765 391.78737183 -196.54569031 392.69193115 -196.88314819 393.62390137 C-199.75594777 401.49487517 -202.88284046 409.20710114 -206 417 C-287.51 417 -369.02 417 -453 417 C-452.10271138 412.51355691 -450.78214684 408.61451345 -449.08056641 404.40966797 C-448.77795458 403.65198152 -448.47534275 402.89429506 -448.16356087 402.11364841 C-447.14701223 399.57149127 -446.12428501 397.03186652 -445.1015625 394.4921875 C-444.36822751 392.66209744 -443.63526609 390.83185764 -442.90264893 389.0014801 C-440.90125965 384.00443138 -438.89445021 379.00957508 -436.8866806 374.01508713 C-434.7679004 368.74183933 -432.65405844 363.4666125 -430.53955078 358.19165039 C-425.51142248 345.65146979 -420.47505592 333.11460495 -415.43765259 320.57814789 C-413.01714104 314.55377985 -410.59748814 308.52906697 -408.17773438 302.50439453 C-400.59501954 283.62588579 -393.01120308 264.74782093 -385.42041016 245.87255859 C-383.69432405 241.58040843 -381.96824166 237.28825677 -380.2421875 232.99609375 C-379.61589478 231.43870767 -379.61589478 231.43870767 -378.97694969 229.84985924 C-374.33988506 218.318197 -369.70824226 206.78446622 -365.09765625 195.2421875 C-359.71247716 181.76105294 -354.29609451 168.29251748 -348.87890625 154.82421875 C-347.95543349 152.52797372 -347.03197165 150.2317243 -346.10852051 147.93547058 C-336.84501612 124.90152664 -336.84501612 124.90152664 -333.26336098 116.00582695 C-332.31884774 113.6570259 -331.37626668 111.3074469 -330.43565941 108.95707893 C-328.13772318 103.22012328 -325.81162348 97.49854025 -323.41690063 91.80123901 C-319.39332383 82.14676404 -315.69261932 72.90954166 -313.72607422 62.61181641 C-310.18062187 45.3510623 -310.18062187 45.3510623 -303 40 C-290.33135293 33.64870046 -274.45322407 33.61480007 -260.58469772 32.37561798 C-248.96819943 31.31848292 -237.49623363 29.65967499 -225.98388672 27.79345703 C-225.06608657 27.64490855 -224.14828642 27.49636007 -223.20267415 27.34331012 C-219.41381015 26.72866673 -215.62540992 26.1112787 -211.83765614 25.48982894 C-202.07114674 23.8877213 -192.29461474 22.35156125 -182.51677251 20.82039523 C-177.52733428 20.03860653 -172.53847869 19.25311705 -167.54956055 18.46801758 C-165.5380656 18.15163164 -163.52657064 17.83524574 -161.51507568 17.51885986 C-154.35169742 16.39185986 -147.18862176 15.26294137 -140.02554649 14.13401753 C-132.02444741 12.8731067 -124.02313434 11.61356008 -116.02165467 10.35506672 C-111.29403203 9.61147294 -106.56649204 8.86736411 -101.83917046 8.1218586 C-97.43023985 7.42661163 -93.02104261 6.73308036 -88.61164284 6.04081535 C-87.01008007 5.78908802 -85.4086088 5.53677774 -83.80724335 5.28379822 C-73.88733124 3.71712203 -63.96130608 2.28014105 -54 1 C-66.25061252 35.92865329 -78.67148402 70.80204095 -91.5625 105.5 C-91.8383493 106.24305389 -92.11419861 106.98610779 -92.39840698 107.75167847 C-96.80638866 119.61277732 -96.80638866 119.61277732 -98 122 C-51.47 122 -4.94 122 43 122 C29.9526666 85.71829591 29.9526666 85.71829591 16.74609375 49.5 C13.56990111 40.83831045 10.41531944 32.16885619 7.28137207 23.49179077 C6.63991504 21.71792406 5.99679032 19.94465945 5.35192871 18.17202759 C4.45529185 15.70615915 3.56477888 13.23816228 2.67578125 10.76953125 C2.26888817 9.65620422 2.26888817 9.65620422 1.85377502 8.52038574 C0.78877307 5.54568365 0 3.18548494 0 0 Z " fill="#000000" transform="translate(563,534)"/>
<path d="M0 0 C0.77916777 0.00291284 1.55833553 0.00582568 2.36111444 0.00882679 C3.59358712 0.00754515 3.59358712 0.00754515 4.85095823 0.00623763 C7.62560042 0.00458031 10.40018319 0.01010829 13.17481989 0.01555592 C15.15523776 0.01583776 17.13565574 0.01568011 19.11607355 0.01511341 C24.51047947 0.01482533 29.90486336 0.02072383 35.29926413 0.02768737 C40.93005841 0.03391909 46.56085314 0.03452456 52.19165033 0.03571278 C62.86245287 0.03882663 73.53324522 0.04704075 84.20404327 0.05706227 C96.34893681 0.06822173 108.49383082 0.07373343 120.6387282 0.0787577 C145.62919867 0.08922332 170.61966007 0.10682381 195.61012262 0.12908131 C211.3206951 39.37391692 227.00218744 78.63007977 242.62910455 117.90831715 C246.7339959 128.22569742 250.83991244 138.54266974 254.94606012 148.85955006 C255.38302461 149.95749771 255.81998911 151.05544537 256.27019495 152.18666416 C261.02202916 164.12588009 265.77780361 176.06344433 270.55543512 187.99236256 C275.97759081 201.53056783 281.37265364 215.07952522 286.76637262 228.62908131 C287.223412 229.77719603 287.68045137 230.92531075 288.15134043 232.10821682 C291.95212862 241.65634556 295.75229256 251.20472273 299.5524444 260.75310475 C302.85264016 269.04520853 306.15307036 277.33721893 309.45387262 285.62908131 C309.90901491 286.77245268 310.3641572 287.91582405 310.83309168 289.09384304 C316.37868683 303.02415834 321.93287408 316.95094105 327.50642389 330.87009388 C332.75830682 343.98932302 337.98089533 357.12017024 343.1965484 370.25383717 C344.32611263 373.09797365 345.45672839 375.94168905 346.58814996 378.78508717 C347.98455198 382.29442508 349.37931118 385.80441142 350.77283472 389.31489331 C351.29697399 390.63448339 351.82169213 391.95384371 352.34700769 393.27296597 C353.06814004 395.08415349 353.7869503 396.89626505 354.50563043 398.70842701 C354.91355829 399.73490849 355.32148615 400.76138996 355.74177545 401.81897694 C356.61012262 404.12908131 356.61012262 404.12908131 356.61012262 405.12908131 C346.26169532 404.44813487 336.0731652 402.72997114 325.84107965 401.1097942 C323.85077108 400.79731972 321.86041326 400.48515883 319.87001032 400.17328602 C314.48929431 399.32929269 309.10927206 398.48095081 303.72936481 397.63181955 C298.08242714 396.74132347 292.43484925 395.85490635 286.7873382 394.96805531 C276.08941581 393.2874958 265.39205925 391.60336289 254.69490796 389.91790295 C241.3741555 387.81923899 228.05269078 385.72511002 214.73121637 383.63103443 C201.12189642 381.49159786 187.51264249 379.35174741 173.90385431 377.20893055 C171.80911782 376.87914588 169.71438109 376.54936273 167.61964411 376.21958119 C163.76355622 375.61249496 159.90751361 375.00512232 156.05149835 374.39757496 C151.95238516 373.75182026 147.85286664 373.10868545 143.75321239 372.46637613 C141.73718989 372.14908007 139.72189871 371.82714732 137.70666116 371.50490338 C136.56668302 371.32448057 135.42670488 371.14405777 134.25218195 370.95816761 C133.29943825 370.80575832 132.34669454 370.65334902 131.36507982 370.49632126 C126.36075892 369.82923773 121.33952174 369.66194899 116.29762262 369.50408131 C115.25928278 369.46540943 114.22094293 369.42673756 113.15113825 369.38689381 C110.63762411 369.29422969 108.12408891 369.20833745 105.61012262 369.12908131 C101.00481508 355.53630067 96.51363855 341.94152228 92.61012262 328.12908131 C89.07754942 336.4954399 86.23986519 345.06692823 83.42262262 353.69158131 C82.53672928 356.40235805 81.64688136 359.11179005 80.75465387 361.82048756 C80.36640436 363.00843922 79.97815485 364.19639088 79.5781402 365.42034107 C78.61012262 368.12908131 78.61012262 368.12908131 77.61012262 369.12908131 C74.64978078 369.4387841 71.69656034 369.69842204 68.73023981 369.9366985 C55.62046852 371.09419734 42.68046584 373.1424011 29.68824762 375.20720631 C27.08882046 375.61554767 24.48930536 376.02332955 21.88970941 376.43059498 C16.3890409 377.29320715 10.889093 378.1602876 5.38963312 379.03057057 C-2.48079323 380.27599853 -10.35247093 381.51336869 -18.2244603 382.74887377 C-43.09105044 386.65212159 -67.95354878 390.58118338 -92.81367499 394.52538258 C-100.14321873 395.68821923 -107.47319218 396.84833734 -114.8032437 398.00796849 C-120.50474175 398.91048602 -126.20532038 399.81855132 -131.90521723 400.73112446 C-135.37824911 401.28618657 -138.8519508 401.83696324 -142.32584196 402.38661915 C-143.90529463 402.63750862 -145.48445196 402.89026614 -147.06327254 403.14510304 C-149.19360517 403.4887892 -151.32488839 403.8258369 -153.45652777 404.16130787 C-154.63598471 404.34969227 -155.81544165 404.53807667 -157.03063971 404.73216969 C-160.51478263 405.14383952 -163.88483003 405.19821364 -167.38987738 405.12908131 C-166.69300193 400.68361205 -165.14893291 396.68653297 -163.47044379 392.53874928 C-163.01651755 391.40219836 -163.01651755 391.40219836 -162.55342108 390.24268681 C-161.53687816 387.70054397 -160.51415683 385.16093346 -159.49143988 382.62126881 C-158.75819645 380.79140762 -158.02532658 378.96139671 -157.29280096 377.13124806 C-155.29145474 372.13430749 -153.28468753 367.13955968 -151.27696234 362.14517933 C-149.15657894 356.86793389 -147.04114028 351.58870681 -144.92503363 346.30974537 C-139.89705104 333.76990472 -134.86084731 321.23337298 -129.82354742 308.69727284 C-127.41512627 302.70307075 -125.00753413 296.70853571 -122.59983832 290.71404225 C-115.06496775 271.95516528 -107.52909892 253.19669073 -99.98606879 234.44109303 C-92.5321937 215.90669302 -85.07973304 197.37184807 -77.66745001 178.82076985 C-72.16533521 165.05192506 -66.63864535 151.29299007 -61.10862738 137.53533131 C-60.6545249 136.40559139 -60.20042242 135.27585148 -59.73255926 134.11187702 C-55.97830605 124.77217663 -52.22331609 115.43277248 -48.46830755 106.09337574 C-34.38644739 71.07675016 -34.38644739 71.07675016 -20.34690863 36.04314381 C-20.06876318 35.34776005 -19.79061774 34.65237629 -19.50404364 33.9359203 C-15.85628994 24.81460786 -12.21059885 15.6923307 -8.61180121 6.55156666 C-6.01497265 0.01705624 -6.01497265 0.01705624 0 0 Z M79.61012262 104.12908131 C69.53326774 128.20652216 59.58066736 152.33251897 49.72621149 176.50183827 C47.78295801 181.26529736 45.83159853 186.02523267 43.86622614 190.77960926 C43.0570034 192.73719097 42.24973619 194.69556656 41.44313043 196.65422779 C40.50128351 198.93929479 39.55558892 201.22278138 38.60523981 203.50432545 C38.20208551 204.48522145 37.79893121 205.46611744 37.38356012 206.47673756 C37.03728571 207.31213063 36.69101129 208.14752369 36.33424371 209.0082317 C35.44856497 211.22875094 35.44856497 211.22875094 35.61012262 214.12908131 C75.21012262 214.12908131 114.81012262 214.12908131 155.61012262 214.12908131 C154.93451229 210.75102964 154.40631438 208.31271523 153.14576715 205.25237232 C152.84609033 204.51860371 152.54641351 203.78483509 152.23765558 203.02883106 C151.90939783 202.23820271 151.58114008 201.44757435 151.24293512 200.63298756 C150.89622766 199.78789631 150.5495202 198.94280506 150.19230646 198.07210499 C149.0442044 195.27681004 147.88969007 192.48421129 146.73512262 189.69158131 C145.93038518 187.73576244 145.12602932 185.77978654 144.32203668 183.82366139 C141.75780258 177.58948558 139.18445417 171.35909282 136.61012262 165.12908131 C135.73801442 163.01744331 134.86594401 160.90578971 133.99391168 158.79412037 C133.12902327 156.70003641 132.26411454 154.60596084 131.39918512 152.51189381 C130.97529505 151.48561375 130.55140497 150.45933369 130.11466974 149.40195423 C128.0725315 144.45860836 126.02888279 139.51589896 123.98170465 134.57463795 C119.79021327 124.45197493 115.65471544 114.31140814 111.61012262 104.12908131 C101.05012262 104.12908131 90.49012262 104.12908131 79.61012262 104.12908131 Z " fill="#000000" transform="translate(444.3898773789406,129.8709186911583)"/>
<path d="" fill="#000000" transform="translate(0,0)"/>
</svg>
